<?xml version="1.0" encoding="UTF-8"?> <svg xmlns="http://www.w3.org/2000/svg" id="Слой_1" data-name="Слой 1" viewBox="0 0 819 600.76"><defs><style>.cls-1{fill:#fff;}.cls-2{fill:none;stroke:#000;stroke-linecap:round;stroke-miterlimit:10;stroke-width:53px;}</style></defs>
    <rect x="0.5" y="65.05" width="24" height="24"></rect><path d="M1279,209V706H462V209h817m1-1H461V707h819V208Z" transform="translate(-461 -143.45)"></path><path d="M870.24,743.7A47.52,47.52,0,1,1,889,739.81,47.46,47.46,0,0,1,870.24,743.7Z" transform="translate(-461 -143.45)"></path><path d="M870.2,648.18v1h0A47,47,0,1,1,851.61,653a47,47,0,0,1,18.59-3.85v-1m0,0a48,48,0,1,0,44.1,29,47.75,47.75,0,0,0-44.1-29Z" transform="translate(-461 -143.45)"></path><path class="cls-1" d="M868.5,685.44c-58.58-20.91-117.94-31.52-176.5-31.52s-117.92,10.61-176.5,31.52V179.72c58.58-22.21,118-33.47,176.5-33.47s117.92,11.26,176.5,33.47Z" transform="translate(-461 -143.45)"></path><path d="M692,148.75c57.71,0,116.23,11,174,32.7V681.91c-57.76-20.24-116.26-30.49-174-30.49s-116.24,10.25-174,30.49V181.45c57.77-21.7,116.29-32.7,174-32.7m0-5q-89.5,0-179,34.25V689q89.5-32.58,179-32.58T871,689V178q-89.5-34.26-179-34.25Z" transform="translate(-461 -143.45)"></path><path class="cls-1" d="M1221.5,685.14c-58.58-20.91-117.94-31.51-176.5-31.51s-117.92,10.6-176.5,31.51V179.42C927.08,157.21,986.45,146,1045,146s117.92,11.26,176.5,33.47Z" transform="translate(-461 -143.45)"></path><path d="M1045,148.45c57.71,0,116.23,11,174,32.7V681.61c-57.76-20.23-116.26-30.49-174-30.49s-116.24,10.26-174,30.49V181.15c57.77-21.7,116.29-32.7,174-32.7m0-5q-89.5,0-179,34.25v511q89.5-32.58,179-32.58t179,32.58v-511q-89.51-34.24-179-34.25Z" transform="translate(-461 -143.45)"></path><path d="M550.5,239.5a323.26,323.26,0,0,1,67.83-25.64c.73-.2,1.46-.42,2.2-.6l2.22-.49,4.45-1,8.91-1.9c.75-.15,1.49-.33,2.24-.45l2.25-.35,4.51-.7,9-1.4c1.5-.27,3-.38,4.53-.52l4.55-.42,9.09-.82c6.07-.33,12.16-.45,18.25-.68,6.08.13,12.17.35,18.25.54,6.06.56,12.14,1,18.18,1.66l9,1.39,4.51.69,2.26.35,1.12.17,1.12.24c5.94,1.28,11.91,2.46,17.8,3.93a306.82,306.82,0,0,1,67.7,26,425.7,425.7,0,0,0-68.76-21.42c-1.45-.38-2.94-.59-4.41-.87l-4.42-.79-8.82-1.65-1.1-.21-1.11-.14-2.22-.29-4.45-.58-8.89-1.15-17.86-1.46-17.9-.39c-6,.18-11.94.25-17.91.52-5.95.53-11.91.93-17.85,1.55l-8.89,1.17-4.45.58-2.22.29c-.74.1-1.47.27-2.21.4l-8.82,1.64-4.42.8-2.21.39-2.19.51A455.2,455.2,0,0,0,550.5,239.5Z" transform="translate(-461 -143.45)"></path><path d="M551.82,317.46a323.18,323.18,0,0,1,67.82-25.64c.74-.2,1.47-.42,2.2-.6l2.23-.49,4.44-1,8.92-1.9c.74-.14,1.48-.33,2.23-.45l2.26-.35,4.5-.7,9-1.4c1.5-.27,3-.38,4.53-.52l4.54-.42,9.1-.82c6.07-.32,12.16-.45,18.24-.68,6.09.13,12.18.35,18.26.54,6.06.56,12.13,1,18.18,1.66l9,1.39,4.51.69,2.25.35,1.13.17,1.11.24c6,1.28,11.91,2.46,17.81,3.93a307.7,307.7,0,0,1,67.7,26A425.5,425.5,0,0,0,763.05,296c-1.45-.38-2.93-.59-4.4-.87l-4.42-.79-8.82-1.65-1.1-.21-1.11-.14-2.23-.29-4.44-.58-8.89-1.15-17.86-1.45-17.91-.4c-6,.18-11.94.25-17.9.52-6,.53-11.91.94-17.86,1.55l-8.89,1.17-4.44.58-2.23.29c-.74.1-1.47.27-2.2.4l-8.82,1.64-4.42.8-2.22.39c-.73.16-1.45.34-2.18.51A456.35,456.35,0,0,0,551.82,317.46Z" transform="translate(-461 -143.45)"></path><path d="M550.82,395.46a323.18,323.18,0,0,1,67.82-25.64c.74-.2,1.47-.42,2.2-.6l2.23-.49,4.44-1,8.92-1.9c.74-.14,1.48-.33,2.23-.45l2.26-.35,4.5-.7,9-1.4c1.5-.27,3-.38,4.53-.52l4.54-.42,9.1-.82c6.07-.32,12.16-.45,18.24-.68,6.09.13,12.18.35,18.26.54,6.06.56,12.13,1,18.18,1.66l9,1.39,4.51.69,2.25.35,1.13.17,1.11.24c6,1.28,11.91,2.46,17.81,3.93a307.7,307.7,0,0,1,67.7,26A425.5,425.5,0,0,0,762.05,374c-1.45-.38-2.93-.59-4.4-.87l-4.42-.79-8.82-1.65-1.1-.21-1.11-.14-2.23-.29-4.44-.58-8.89-1.15-17.86-1.45-17.91-.4c-6,.18-11.94.25-17.9.52-6,.53-11.91.94-17.86,1.55l-8.89,1.17-4.44.58-2.23.29c-.74.1-1.47.27-2.2.4l-8.82,1.64-4.42.8-2.22.39c-.73.16-1.45.34-2.18.51A456.35,456.35,0,0,0,550.82,395.46Z" transform="translate(-461 -143.45)"></path><path d="M551.82,473.46a323.18,323.18,0,0,1,67.82-25.64c.74-.2,1.47-.42,2.2-.6l2.23-.49,4.44-1,8.92-1.9c.74-.14,1.48-.33,2.23-.45l2.26-.35,4.5-.7,9-1.4c1.5-.27,3-.38,4.53-.52l4.54-.42,9.1-.82c6.07-.32,12.16-.45,18.24-.68,6.09.13,12.18.35,18.26.54,6.06.56,12.13,1,18.18,1.66l9,1.39,4.51.69,2.25.35,1.13.17,1.11.24c6,1.28,11.91,2.46,17.81,3.93a307.7,307.7,0,0,1,67.7,26A425.5,425.5,0,0,0,763.05,452c-1.45-.38-2.93-.59-4.4-.87l-4.42-.79-8.82-1.65-1.1-.21-1.11-.14-2.23-.29-4.44-.58-8.89-1.15-17.86-1.45-17.91-.4c-6,.18-11.94.25-17.9.52-6,.53-11.91.94-17.86,1.55l-8.89,1.17-4.44.58-2.23.29c-.74.1-1.47.27-2.2.4l-8.82,1.64-4.42.8-2.22.39c-.73.16-1.45.34-2.18.51A456.35,456.35,0,0,0,551.82,473.46Z" transform="translate(-461 -143.45)"></path><path d="M558.82,551.46a323.18,323.18,0,0,1,67.82-25.64c.74-.2,1.47-.42,2.2-.6l2.23-.49,4.44-1,8.92-1.9c.74-.14,1.48-.33,2.23-.45l2.26-.35,4.5-.7,9-1.4c1.5-.27,3-.38,4.53-.52l4.54-.42,9.1-.82c6.07-.32,12.16-.45,18.24-.68,6.09.13,12.18.35,18.26.54,6.06.56,12.13,1,18.18,1.66l9,1.39,4.51.69,2.25.35,1.13.17,1.11.24c6,1.28,11.91,2.46,17.81,3.93a307.7,307.7,0,0,1,67.7,26A425.5,425.5,0,0,0,770.05,530c-1.45-.38-2.93-.59-4.4-.87l-4.42-.79-8.82-1.65-1.1-.21-1.11-.14-2.23-.29-4.44-.58-8.89-1.15-17.86-1.45-17.91-.4c-6,.18-11.94.25-17.9.52-6,.53-11.91.94-17.86,1.55l-8.89,1.17-4.44.58-2.23.29c-.74.1-1.47.27-2.2.4l-8.82,1.64-4.42.8-2.22.39c-.73.16-1.45.34-2.18.51A456.35,456.35,0,0,0,558.82,551.46Z" transform="translate(-461 -143.45)"></path><path d="M550.82,629.46a323.18,323.18,0,0,1,67.82-25.64c.74-.2,1.47-.42,2.2-.6l2.23-.49,4.44-1,8.92-1.9c.74-.14,1.48-.33,2.23-.45l2.26-.35,4.5-.7,9-1.4c1.5-.27,3-.38,4.53-.52l4.54-.42,9.1-.82c6.07-.32,12.16-.45,18.24-.68,6.09.13,12.18.35,18.26.54,6.06.56,12.13,1,18.18,1.66l9,1.39,4.51.69,2.25.35,1.13.17,1.11.24c6,1.28,11.91,2.46,17.81,3.93a307.7,307.7,0,0,1,67.7,26A425.5,425.5,0,0,0,762.05,608c-1.45-.38-2.93-.59-4.4-.87l-4.42-.79-8.82-1.65-1.1-.21-1.11-.14-2.23-.29-4.44-.58-8.89-1.15-17.86-1.45-17.91-.4c-6,.18-11.94.25-17.9.52-6,.53-11.91.94-17.86,1.55l-8.89,1.17-4.44.58-2.23.29c-.74.1-1.47.27-2.2.4l-8.82,1.64-4.42.8-2.22.39c-.73.16-1.45.34-2.18.51A456.35,456.35,0,0,0,550.82,629.46Z" transform="translate(-461 -143.45)"></path><path d="M915.66,232.48a323.05,323.05,0,0,1,67.83-25.64c.73-.2,1.46-.42,2.19-.6l2.23-.49,4.45-1,8.91-1.9c.75-.14,1.49-.33,2.24-.45l2.25-.35,4.5-.7,9-1.4c1.5-.27,3-.38,4.53-.52l4.55-.42,9.09-.82c6.07-.32,12.16-.45,18.25-.68,6.08.13,12.17.35,18.25.54,6.06.56,12.13,1,18.18,1.66l9,1.39,4.51.69,2.25.35,1.13.17,1.12.24c5.94,1.28,11.91,2.46,17.8,3.93a306.82,306.82,0,0,1,67.7,26,425.5,425.5,0,0,0-68.77-21.42c-1.44-.38-2.93-.59-4.4-.87l-4.42-.79-8.82-1.65-1.1-.21-1.11-.14-2.22-.29-4.45-.58-8.89-1.15-17.86-1.45-17.91-.4c-6,.18-11.94.25-17.9.52-6,.53-11.91.94-17.85,1.55l-8.89,1.17-4.45.58-2.22.29c-.75.1-1.47.27-2.21.4l-8.82,1.64-4.42.8-2.21.39c-.74.16-1.46.34-2.19.51A455.2,455.2,0,0,0,915.66,232.48Z" transform="translate(-461 -143.45)"></path><path d="M917,310.44A323.47,323.47,0,0,1,984.8,284.8c.73-.2,1.46-.42,2.2-.6l2.22-.49,4.45-1,8.92-1.9c.74-.14,1.48-.33,2.23-.45l2.25-.35,4.51-.7,9-1.4c1.5-.27,3-.38,4.53-.52l4.54-.42,9.09-.82c6.08-.32,12.17-.45,18.25-.68,6.09.13,12.17.35,18.26.54,6.06.56,12.13,1,18.18,1.67l9,1.38,4.51.69,2.25.35,1.13.18,1.11.23c6,1.28,11.91,2.46,17.8,3.93a307.31,307.31,0,0,1,67.7,26A425.08,425.08,0,0,0,1128.21,289c-1.45-.38-2.93-.59-4.4-.87l-4.42-.79-8.82-1.65-1.1-.21-1.11-.14-2.23-.29-4.44-.58-8.89-1.15-17.86-1.45-17.91-.4c-6,.18-11.94.25-17.9.53-6,.52-11.92.93-17.86,1.54l-8.89,1.17-4.44.58-2.23.29c-.74.1-1.47.27-2.2.4l-8.83,1.64-4.42.8-2.21.39c-.73.16-1.46.34-2.18.51A456.82,456.82,0,0,0,917,310.44Z" transform="translate(-461 -143.45)"></path><path d="M916,388.44A323.47,323.47,0,0,1,983.8,362.8c.73-.2,1.46-.42,2.2-.6l2.22-.49,4.45-1,8.92-1.9c.74-.14,1.48-.33,2.23-.45l2.25-.35,4.51-.7,9-1.4c1.5-.27,3-.38,4.53-.52l4.54-.42,9.09-.82c6.08-.32,12.17-.45,18.25-.68,6.09.13,12.17.35,18.26.54,6.06.56,12.13,1,18.18,1.67l9,1.38,4.51.69,2.25.35,1.13.18,1.11.23c6,1.28,11.91,2.46,17.8,3.93a307.31,307.31,0,0,1,67.7,26A425.08,425.08,0,0,0,1127.21,367c-1.45-.38-2.93-.59-4.4-.87l-4.42-.79-8.82-1.65-1.1-.21-1.11-.14-2.23-.29-4.44-.58-8.89-1.15-17.86-1.45-17.91-.4c-6,.18-11.94.25-17.9.53-6,.52-11.92.93-17.86,1.54l-8.89,1.17-4.44.58-2.23.29c-.74.1-1.47.27-2.2.4l-8.83,1.64-4.42.8-2.21.39c-.73.16-1.46.34-2.18.51A456.82,456.82,0,0,0,916,388.44Z" transform="translate(-461 -143.45)"></path><path d="M917,466.44A323.47,323.47,0,0,1,984.8,440.8c.73-.2,1.46-.42,2.2-.6l2.22-.49,4.45-1,8.92-1.9c.74-.14,1.48-.33,2.23-.45l2.25-.35,4.51-.7,9-1.4c1.5-.27,3-.38,4.53-.52l4.54-.42,9.09-.82c6.08-.32,12.17-.45,18.25-.68,6.09.13,12.17.35,18.26.54,6.06.56,12.13,1,18.18,1.67l9,1.38,4.51.69,2.25.35,1.13.18,1.11.23c6,1.28,11.91,2.46,17.8,3.93a307.31,307.31,0,0,1,67.7,26A425.08,425.08,0,0,0,1128.21,445c-1.45-.38-2.93-.59-4.4-.87l-4.42-.79-8.82-1.65-1.1-.21-1.11-.14-2.23-.29-4.44-.58-8.89-1.15-17.86-1.45-17.91-.4c-6,.18-11.94.25-17.9.53-6,.52-11.92.93-17.86,1.54l-8.89,1.17-4.44.58-2.23.29c-.74.1-1.47.27-2.2.4l-8.83,1.64-4.42.8-2.21.39c-.73.16-1.46.34-2.18.51A456.82,456.82,0,0,0,917,466.44Z" transform="translate(-461 -143.45)"></path><path d="M924,544.44A323.47,323.47,0,0,1,991.8,518.8c.73-.2,1.46-.42,2.2-.6l2.22-.49,4.45-1,8.92-1.9c.74-.14,1.48-.33,2.23-.45l2.25-.35,4.51-.7,9-1.4c1.5-.27,3-.38,4.53-.52l4.54-.42,9.09-.82c6.08-.32,12.17-.45,18.25-.68,6.09.13,12.17.35,18.26.54,6.06.56,12.13,1,18.18,1.67l9,1.38,4.51.69,2.25.35,1.13.18,1.11.23c6,1.28,11.91,2.46,17.8,3.93a307.31,307.31,0,0,1,67.7,26A425.08,425.08,0,0,0,1135.21,523c-1.45-.38-2.93-.59-4.4-.87l-4.42-.79-8.82-1.65-1.1-.21-1.11-.14-2.23-.29-4.44-.58-8.89-1.15-17.86-1.45-17.91-.4c-6,.18-11.94.25-17.9.53-6,.52-11.92.93-17.86,1.54l-8.89,1.17-4.44.58-2.23.29c-.74.1-1.47.27-2.2.4l-8.83,1.64-4.42.8-2.21.39c-.73.16-1.46.34-2.18.51A456.82,456.82,0,0,0,924,544.44Z" transform="translate(-461 -143.45)"></path><path d="M916,622.44A323.47,323.47,0,0,1,983.8,596.8c.73-.2,1.46-.42,2.2-.6l2.22-.49,4.45-1,8.92-1.9c.74-.14,1.48-.33,2.23-.45l2.25-.35,4.51-.7,9-1.4c1.5-.27,3-.38,4.53-.52l4.54-.42,9.09-.82c6.08-.32,12.17-.45,18.25-.68,6.09.13,12.17.35,18.26.54,6.06.56,12.13,1,18.18,1.67l9,1.38,4.51.69,2.25.35,1.13.18,1.11.23c6,1.28,11.91,2.46,17.8,3.93a307.31,307.31,0,0,1,67.7,26A425.08,425.08,0,0,0,1127.21,601c-1.45-.38-2.93-.59-4.4-.87l-4.42-.79-8.82-1.65-1.1-.21-1.11-.14-2.23-.29-4.44-.58-8.89-1.15-17.86-1.45-17.91-.4c-6,.18-11.94.25-17.9.53-6,.52-11.92.93-17.86,1.54l-8.89,1.17-4.44.58-2.23.29c-.74.1-1.47.27-2.2.4l-8.83,1.64-4.42.8-2.21.39c-.73.16-1.46.34-2.18.51A456.82,456.82,0,0,0,916,622.44Z" transform="translate(-461 -143.45)"></path><line class="cls-2" x1="442.69" y1="323.53" x2="579.3" y2="454.25"></line><circle class="cls-1" cx="824.21" cy="387.18" r="108.67" transform="translate(-493.37 552.76) rotate(-45)"></circle><path d="M824.21,292A95.17,95.17,0,1,1,729,387.18,95.28,95.28,0,0,1,824.21,292m0-27A122.17,122.17,0,1,0,946.38,387.18,122.16,122.16,0,0,0,824.21,265Z" transform="translate(-461 -143.45)"></path><path d="M785.76,451.27a23.3,23.3,0,0,1-6.31.2,36.25,36.25,0,0,1-5.86-1,41.67,41.67,0,0,1-10.43-4.51,45.23,45.23,0,0,1-8.71-6.9c-1.28-1.33-2.48-2.73-3.66-4.16s-2.13-3-3.13-4.56a40,40,0,0,1-2.6-4.88A37.42,37.42,0,0,1,743,420.3c-.57-1.76-1-3.55-1.46-5.34a44.51,44.51,0,0,1-.73-5.53,41.46,41.46,0,0,1,.64-11.25,29,29,0,0,1,1.65-5.63,30.46,30.46,0,0,1,2.7-5.55l1.58-.26A127.4,127.4,0,0,0,752.88,405a98.07,98.07,0,0,0,8.41,17,96.31,96.31,0,0,0,11.32,15.18,94.52,94.52,0,0,0,6.66,6.77,69.52,69.52,0,0,0,7.31,6Z" transform="translate(-461 -143.45)"></path></svg>